<svg xmlns="http://www.w3.org/2000/svg" xmlns:xlink="http://www.w3.org/1999/xlink" width="500" zoomAndPan="magnify" viewBox="0 0 375 374.999991" height="500" preserveAspectRatio="xMidYMid meet" version="1.0"><defs><g/></defs><g fill="#1e4482" fill-opacity="1"><g transform="translate(81.12154, 306.583072)"><g><path d="M 141.90625 -211.796875 C 145.269531 -217.316406 149.050781 -221.394531 153.25 -224.03125 C 157.457031 -226.675781 161.722656 -228 166.046875 -228 C 172.765625 -228 178.40625 -225.296875 182.96875 -219.890625 C 187.53125 -214.492188 189.8125 -206.988281 189.8125 -197.375 C 185.488281 -183.9375 179.066406 -170.492188 170.546875 -157.046875 C 162.023438 -143.597656 152.476562 -130.269531 141.90625 -117.0625 C 151.757812 -104.570312 160.40625 -92.625 167.84375 -81.21875 C 175.289062 -69.8125 183.695312 -58.585938 193.0625 -47.546875 L 192.703125 -47.546875 C 198.460938 -42.503906 201.34375 -36.378906 201.34375 -29.171875 C 201.34375 -23.171875 199 -17.648438 194.3125 -12.609375 C 189.632812 -7.566406 182.972656 -5.046875 174.328125 -5.046875 C 169.285156 -5.046875 164.300781 -7.082031 159.375 -11.15625 C 154.457031 -15.238281 149.835938 -20.28125 145.515625 -26.28125 C 141.191406 -32.289062 137.226562 -38.238281 133.625 -44.125 C 130.03125 -50.007812 126.910156 -54.628906 124.265625 -57.984375 L 109.140625 -78.15625 C 100.015625 -68.3125 91.25 -58.585938 82.84375 -48.984375 C 74.4375 -39.378906 66.632812 -30.253906 59.4375 -21.609375 C 56.070312 -17.523438 52.347656 -14.519531 48.265625 -12.59375 C 44.179688 -10.675781 40.335938 -9.71875 36.734375 -9.71875 C 30.492188 -9.71875 25.03125 -12 20.34375 -16.5625 C 15.664062 -21.125 13.328125 -26.769531 13.328125 -33.5 C 13.328125 -39.257812 15.007812 -45.019531 18.375 -50.78125 C 27.976562 -62.550781 37.757812 -74.140625 47.71875 -85.546875 C 57.6875 -96.953125 67.472656 -108.296875 77.078125 -119.578125 C 66.035156 -133.984375 55.226562 -148.453125 44.65625 -162.984375 C 34.09375 -177.515625 24.007812 -192.34375 14.40625 -207.46875 C 12.007812 -212.507812 10.8125 -217.671875 10.8125 -222.953125 C 10.8125 -230.160156 13.148438 -235.984375 17.828125 -240.421875 C 22.515625 -244.867188 27.859375 -247.09375 33.859375 -247.09375 C 37.703125 -247.09375 41.84375 -245.953125 46.28125 -243.671875 C 50.726562 -241.390625 54.507812 -237.847656 57.625 -233.046875 C 66.03125 -220.554688 74.613281 -208.128906 83.375 -195.765625 C 92.144531 -183.398438 101.09375 -171.09375 110.21875 -158.84375 C 116.695312 -167.007812 122.816406 -175.410156 128.578125 -184.046875 C 134.347656 -192.691406 138.789062 -201.941406 141.90625 -211.796875 Z M 141.90625 -211.796875 "/></g></g></g><g fill="#249ebf" fill-opacity="1"><g transform="translate(75.594451, 300.655996)"><g><path d="M 141.90625 -211.796875 C 145.269531 -217.316406 149.050781 -221.394531 153.25 -224.03125 C 157.457031 -226.675781 161.722656 -228 166.046875 -228 C 172.765625 -228 178.40625 -225.296875 182.96875 -219.890625 C 187.53125 -214.492188 189.8125 -206.988281 189.8125 -197.375 C 185.488281 -183.9375 179.066406 -170.492188 170.546875 -157.046875 C 162.023438 -143.597656 152.476562 -130.269531 141.90625 -117.0625 C 151.757812 -104.570312 160.40625 -92.625 167.84375 -81.21875 C 175.289062 -69.8125 183.695312 -58.585938 193.0625 -47.546875 L 192.703125 -47.546875 C 198.460938 -42.503906 201.34375 -36.378906 201.34375 -29.171875 C 201.34375 -23.171875 199 -17.648438 194.3125 -12.609375 C 189.632812 -7.566406 182.972656 -5.046875 174.328125 -5.046875 C 169.285156 -5.046875 164.300781 -7.082031 159.375 -11.15625 C 154.457031 -15.238281 149.835938 -20.28125 145.515625 -26.28125 C 141.191406 -32.289062 137.226562 -38.238281 133.625 -44.125 C 130.03125 -50.007812 126.910156 -54.628906 124.265625 -57.984375 L 109.140625 -78.15625 C 100.015625 -68.3125 91.25 -58.585938 82.84375 -48.984375 C 74.4375 -39.378906 66.632812 -30.253906 59.4375 -21.609375 C 56.070312 -17.523438 52.347656 -14.519531 48.265625 -12.59375 C 44.179688 -10.675781 40.335938 -9.71875 36.734375 -9.71875 C 30.492188 -9.71875 25.03125 -12 20.34375 -16.5625 C 15.664062 -21.125 13.328125 -26.769531 13.328125 -33.5 C 13.328125 -39.257812 15.007812 -45.019531 18.375 -50.78125 C 27.976562 -62.550781 37.757812 -74.140625 47.71875 -85.546875 C 57.6875 -96.953125 67.472656 -108.296875 77.078125 -119.578125 C 66.035156 -133.984375 55.226562 -148.453125 44.65625 -162.984375 C 34.09375 -177.515625 24.007812 -192.34375 14.40625 -207.46875 C 12.007812 -212.507812 10.8125 -217.671875 10.8125 -222.953125 C 10.8125 -230.160156 13.148438 -235.984375 17.828125 -240.421875 C 22.515625 -244.867188 27.859375 -247.09375 33.859375 -247.09375 C 37.703125 -247.09375 41.84375 -245.953125 46.28125 -243.671875 C 50.726562 -241.390625 54.507812 -237.847656 57.625 -233.046875 C 66.03125 -220.554688 74.613281 -208.128906 83.375 -195.765625 C 92.144531 -183.398438 101.09375 -171.09375 110.21875 -158.84375 C 116.695312 -167.007812 122.816406 -175.410156 128.578125 -184.046875 C 134.347656 -192.691406 138.789062 -201.941406 141.90625 -211.796875 Z M 141.90625 -211.796875 "/></g></g></g></svg>