<svg xmlns="http://www.w3.org/2000/svg" xmlns:xlink="http://www.w3.org/1999/xlink" width="500" zoomAndPan="magnify" viewBox="0 0 375 374.999991" height="500" preserveAspectRatio="xMidYMid meet" version="1.0"><defs><g/><clipPath id="2ea228d0db"><rect x="0" width="300" y="0" height="375"/></clipPath></defs><g transform="matrix(1, 0, 0, 1, 26, 0)"><g clip-path="url(#2ea228d0db)"><g fill="#5b6366" fill-opacity="1"><g transform="translate(31.991694, 279.863847)"><g><path d="M 42.5 -134.71875 C 45.8125 -153.144531 51.863281 -169.554688 60.65625 -183.953125 C 69.457031 -198.359375 80.953125 -209.046875 95.140625 -216.015625 C 109.328125 -222.984375 126.34375 -224.679688 146.1875 -221.109375 C 162.019531 -218.265625 175.0625 -211.773438 185.3125 -201.640625 C 195.570312 -191.503906 203.394531 -179 208.78125 -164.125 C 214.164062 -149.257812 217.296875 -133.085938 218.171875 -115.609375 C 219.054688 -98.128906 217.929688 -80.644531 214.796875 -63.15625 C 212.796875 -52.050781 208.972656 -40.96875 203.328125 -29.90625 C 197.691406 -18.84375 190.425781 -8.921875 181.53125 -0.140625 C 172.632812 8.628906 162.613281 15.179688 151.46875 19.515625 C 140.320312 23.847656 128.132812 24.828125 114.90625 22.453125 C 102.144531 20.160156 91.101562 15.070312 81.78125 7.1875 C 72.457031 -0.695312 64.800781 -10.363281 58.8125 -21.8125 C 52.820312 -33.257812 48.269531 -45.609375 45.15625 -58.859375 C 42.039062 -72.109375 40.316406 -85.285156 39.984375 -98.390625 C 39.660156 -111.492188 40.5 -123.601562 42.5 -134.71875 Z M 122.046875 -29.671875 C 129.617188 -28.316406 136.40625 -29.414062 142.40625 -32.96875 C 148.414062 -36.53125 153.445312 -41.785156 157.5 -48.734375 C 161.550781 -55.691406 164.320312 -63.304688 165.8125 -71.578125 C 166.820312 -77.253906 167.5 -84.085938 167.84375 -92.078125 C 168.1875 -100.078125 167.914062 -108.421875 167.03125 -117.109375 C 166.15625 -125.796875 164.519531 -134.015625 162.125 -141.765625 C 159.738281 -149.515625 156.335938 -156.039062 151.921875 -161.34375 C 147.515625 -166.65625 142.003906 -169.90625 135.390625 -171.09375 C 123.335938 -173.257812 113.675781 -170.054688 106.40625 -161.484375 C 99.132812 -152.910156 94.3125 -142.003906 91.9375 -128.765625 C 91.207031 -124.742188 90.722656 -119.03125 90.484375 -111.625 C 90.253906 -104.226562 90.5 -96.078125 91.21875 -87.171875 C 91.9375 -78.265625 93.378906 -69.648438 95.546875 -61.328125 C 97.710938 -53.015625 100.957031 -45.96875 105.28125 -40.1875 C 109.613281 -34.40625 115.203125 -30.898438 122.046875 -29.671875 Z M 122.046875 -29.671875 "/></g></g></g><g fill="#f2f2f2" fill-opacity="1"><g transform="translate(27.599303, 273.053133)"><g><path d="M 42.5 -134.71875 C 45.8125 -153.144531 51.863281 -169.554688 60.65625 -183.953125 C 69.457031 -198.359375 80.953125 -209.046875 95.140625 -216.015625 C 109.328125 -222.984375 126.34375 -224.679688 146.1875 -221.109375 C 162.019531 -218.265625 175.0625 -211.773438 185.3125 -201.640625 C 195.570312 -191.503906 203.394531 -179 208.78125 -164.125 C 214.164062 -149.257812 217.296875 -133.085938 218.171875 -115.609375 C 219.054688 -98.128906 217.929688 -80.644531 214.796875 -63.15625 C 212.796875 -52.050781 208.972656 -40.96875 203.328125 -29.90625 C 197.691406 -18.84375 190.425781 -8.921875 181.53125 -0.140625 C 172.632812 8.628906 162.613281 15.179688 151.46875 19.515625 C 140.320312 23.847656 128.132812 24.828125 114.90625 22.453125 C 102.144531 20.160156 91.101562 15.070312 81.78125 7.1875 C 72.457031 -0.695312 64.800781 -10.363281 58.8125 -21.8125 C 52.820312 -33.257812 48.269531 -45.609375 45.15625 -58.859375 C 42.039062 -72.109375 40.316406 -85.285156 39.984375 -98.390625 C 39.660156 -111.492188 40.5 -123.601562 42.5 -134.71875 Z M 122.046875 -29.671875 C 129.617188 -28.316406 136.40625 -29.414062 142.40625 -32.96875 C 148.414062 -36.53125 153.445312 -41.785156 157.5 -48.734375 C 161.550781 -55.691406 164.320312 -63.304688 165.8125 -71.578125 C 166.820312 -77.253906 167.5 -84.085938 167.84375 -92.078125 C 168.1875 -100.078125 167.914062 -108.421875 167.03125 -117.109375 C 166.15625 -125.796875 164.519531 -134.015625 162.125 -141.765625 C 159.738281 -149.515625 156.335938 -156.039062 151.921875 -161.34375 C 147.515625 -166.65625 142.003906 -169.90625 135.390625 -171.09375 C 123.335938 -173.257812 113.675781 -170.054688 106.40625 -161.484375 C 99.132812 -152.910156 94.3125 -142.003906 91.9375 -128.765625 C 91.207031 -124.742188 90.722656 -119.03125 90.484375 -111.625 C 90.253906 -104.226562 90.5 -96.078125 91.21875 -87.171875 C 91.9375 -78.265625 93.378906 -69.648438 95.546875 -61.328125 C 97.710938 -53.015625 100.957031 -45.96875 105.28125 -40.1875 C 109.613281 -34.40625 115.203125 -30.898438 122.046875 -29.671875 Z M 122.046875 -29.671875 "/></g></g></g></g></g></svg>