<svg xmlns="http://www.w3.org/2000/svg" xmlns:xlink="http://www.w3.org/1999/xlink" width="500" zoomAndPan="magnify" viewBox="0 0 375 374.999991" height="500" preserveAspectRatio="xMidYMid meet" version="1.0"><defs><g/><clipPath id="3573fd9532"><rect x="0" width="308" y="0" height="375"/></clipPath></defs><g transform="matrix(1, 0, 0, 1, 36, 0)"><g clip-path="url(#3573fd9532)"><g fill="#249ebf" fill-opacity="1"><g transform="translate(30.017296, 287.833708)"><g><path d="M 167.839844 -191.570312 C 173.414062 -197.871094 179.402344 -202.3125 185.808594 -204.894531 C 192.617188 -207.644531 199.320312 -208.425781 205.917969 -207.238281 C 216.308594 -205.375 224.226562 -199.71875 229.679688 -190.273438 C 234.726562 -181.535156 236.132812 -170.953125 233.902344 -158.53125 L 233.558594 -156.621094 L 232.644531 -154.90625 C 225.519531 -141.503906 216.21875 -128.550781 204.738281 -116.046875 C 193.664062 -103.984375 181.589844 -92.238281 168.515625 -80.808594 L 160.367188 -90.128906 L 171.292969 -95.957031 C 178.949219 -81.601562 185.503906 -67.984375 190.957031 -55.101562 C 196.066406 -43.035156 202.125 -30.960938 209.128906 -18.882812 L 222.539062 4.242188 L 195.875 -0.546875 L 198.066406 -12.734375 L 207.738281 -20.464844 C 214.855469 -11.554688 217.449219 -1.714844 215.511719 9.0625 C 213.878906 18.160156 209.015625 25.753906 200.925781 31.835938 C 192.550781 38.132812 182.335938 40.203125 170.285156 38.039062 C 162.390625 36.621094 155.421875 32.328125 149.378906 25.164062 C 144.574219 19.472656 140.347656 12.8125 136.699219 5.1875 C 133.375 -1.765625 130.402344 -8.597656 127.785156 -15.3125 C 125.453125 -21.289062 123.398438 -25.953125 121.621094 -29.304688 L 121.554688 -29.425781 L 110.167969 -52.078125 L 121.230469 -57.636719 L 128.679688 -47.75 C 118.054688 -39.742188 107.800781 -31.792969 97.925781 -23.898438 C 88.035156 -15.992188 78.816406 -8.453125 70.273438 -1.28125 C 64.867188 3.308594 59.089844 6.433594 52.941406 8.082031 C 46.800781 9.730469 41.050781 10.070312 35.691406 9.109375 C 26.242188 7.410156 18.640625 2.539062 12.886719 -5.507812 C 7.058594 -13.660156 5.046875 -22.757812 6.851562 -32.800781 C 8.265625 -40.671875 11.859375 -47.992188 17.632812 -54.769531 L 18.261719 -55.507812 L 19 -56.140625 C 30.636719 -66.113281 42.421875 -75.875 54.355469 -85.425781 C 66.136719 -94.855469 77.730469 -104.261719 89.140625 -113.636719 L 97 -104.070312 L 86 -98.394531 C 77.625 -114.621094 69.5 -130.863281 61.625 -147.121094 C 53.679688 -163.523438 46.269531 -180.136719 39.390625 -196.964844 L 39.105469 -197.660156 L 38.90625 -198.386719 C 36.945312 -205.574219 36.59375 -212.683594 37.859375 -219.71875 C 39.757812 -230.300781 44.886719 -238.335938 53.246094 -243.828125 C 61.390625 -249.183594 70.039062 -251.039062 79.1875 -249.394531 C 84.933594 -248.363281 90.582031 -245.726562 96.136719 -241.484375 C 101.851562 -237.121094 106.246094 -231.289062 109.324219 -223.988281 C 115.296875 -210.425781 121.480469 -196.828125 127.878906 -183.199219 C 134.277344 -169.566406 140.863281 -155.960938 147.636719 -142.382812 L 136.554688 -136.855469 L 128.375 -146.148438 C 135.941406 -152.8125 143.203125 -159.761719 150.167969 -167.003906 C 156.558594 -173.652344 161.886719 -181.03125 166.15625 -189.136719 L 166.851562 -190.457031 Z M 186.382812 -175.160156 L 177.109375 -183.367188 L 188.066406 -177.597656 C 182.710938 -167.425781 176.027344 -158.175781 168.019531 -149.84375 C 160.578125 -142.105469 152.820312 -134.679688 144.738281 -127.5625 L 132.660156 -116.929688 L 125.476562 -131.328125 C 118.617188 -145.082031 111.945312 -158.867188 105.460938 -172.675781 C 98.980469 -186.484375 92.660156 -200.386719 86.503906 -214.375 C 85.132812 -217.628906 83.332031 -220.105469 81.109375 -221.800781 C 78.726562 -223.621094 76.625 -224.695312 74.808594 -225.019531 C 72.140625 -225.5 69.488281 -224.871094 66.84375 -223.136719 C 64.414062 -221.539062 62.875 -218.941406 62.230469 -215.339844 C 61.625 -211.976562 61.816406 -208.5 62.796875 -204.914062 L 50.851562 -201.648438 L 62.3125 -206.335938 C 68.992188 -189.988281 76.191406 -173.847656 83.910156 -157.917969 C 91.695312 -141.847656 99.726562 -125.789062 108.003906 -109.75 L 112.59375 -100.859375 L 104.863281 -94.507812 C 93.375 -85.0625 81.695312 -75.59375 69.828125 -66.09375 C 58.113281 -56.714844 46.542969 -47.128906 35.113281 -37.335938 L 27.058594 -46.738281 L 36.480469 -38.707031 C 33.601562 -35.328125 31.847656 -31.902344 31.222656 -28.425781 C 30.652344 -25.234375 31.253906 -22.398438 33.03125 -19.910156 C 34.878906 -17.324219 37.226562 -15.773438 40.066406 -15.265625 C 41.796875 -14.953125 43.949219 -15.144531 46.523438 -15.835938 C 49.089844 -16.523438 51.699219 -17.996094 54.351562 -20.25 C 63.046875 -27.546875 72.417969 -35.210938 82.464844 -43.242188 C 92.527344 -51.285156 102.964844 -59.378906 113.78125 -67.527344 L 125.628906 -76.453125 L 143.617188 -40.671875 L 132.554688 -35.109375 L 143.488281 -40.917969 C 145.722656 -36.71875 148.175781 -31.179688 150.855469 -24.304688 C 153.25 -18.164062 155.976562 -11.898438 159.035156 -5.503906 C 161.773438 0.21875 164.863281 5.117188 168.308594 9.199219 C 170.511719 11.8125 172.628906 13.300781 174.660156 13.664062 C 179.625 14.554688 183.421875 14.015625 186.042969 12.042969 C 188.953125 9.855469 190.652344 7.402344 191.140625 4.683594 C 191.75 1.28125 190.835938 -1.949219 188.394531 -5.003906 L 167.820312 -30.746094 L 200.609375 -24.855469 L 198.417969 -12.671875 L 187.710938 -6.457031 C 180.183594 -19.433594 173.667969 -32.429688 168.15625 -45.445312 C 162.988281 -57.648438 156.75 -70.601562 149.441406 -84.304688 L 144.816406 -92.980469 L 152.21875 -99.453125 C 164.609375 -110.285156 176.035156 -121.398438 186.496094 -132.792969 C 196.550781 -143.746094 204.644531 -154.992188 210.78125 -166.53125 L 221.714844 -160.71875 L 209.527344 -162.90625 C 210.691406 -169.390625 210.261719 -174.386719 208.234375 -177.894531 C 206.617188 -180.699219 204.382812 -182.355469 201.539062 -182.867188 C 199.625 -183.210938 197.472656 -182.898438 195.074219 -181.933594 C 192.277344 -180.800781 189.378906 -178.546875 186.382812 -175.160156 Z M 186.382812 -175.160156 "/></g></g></g></g></g></svg>