<svg xmlns="http://www.w3.org/2000/svg" xmlns:xlink="http://www.w3.org/1999/xlink" width="500" zoomAndPan="magnify" viewBox="0 0 375 374.999991" height="500" preserveAspectRatio="xMidYMid meet" version="1.0"><defs><g/><clipPath id="d9d1a5e89a"><rect x="0" width="303" y="0" height="375"/></clipPath></defs><g transform="matrix(1, 0, 0, 1, 34, 0)"><g clip-path="url(#d9d1a5e89a)"><g fill="#dd2427" fill-opacity="1"><g transform="translate(27.220459, 280.422044)"><g><path d="M 30.304688 -136.910156 C 33.890625 -156.867188 40.488281 -174.707031 50.105469 -190.429688 C 60.160156 -206.871094 73.355469 -219.105469 89.6875 -227.128906 C 106.300781 -235.292969 125.867188 -237.351562 148.386719 -233.308594 C 166.742188 -230.011719 181.960938 -222.394531 194.039062 -210.457031 C 205.621094 -199.007812 214.417969 -184.972656 220.429688 -168.347656 C 226.230469 -152.320312 229.605469 -134.949219 230.550781 -116.234375 C 231.488281 -97.808594 230.300781 -79.386719 226.992188 -60.964844 C 224.78125 -48.65625 220.574219 -36.421875 214.371094 -24.273438 C 208.121094 -12.019531 200.070312 -1.042969 190.226562 8.664062 C 180.121094 18.632812 168.699219 26.097656 155.964844 31.054688 C 142.648438 36.238281 128.230469 37.4375 112.707031 34.648438 C 97.761719 31.964844 84.785156 25.960938 73.773438 16.632812 C 63.230469 7.695312 54.585938 -3.207031 47.84375 -16.078125 C 41.363281 -28.449219 36.449219 -41.765625 33.097656 -56.027344 C 29.792969 -70.101562 27.964844 -84.117188 27.613281 -98.082031 C 27.265625 -112.03125 28.160156 -124.972656 30.304688 -136.910156 Z M 54.675781 -132.53125 C 52.832031 -122.25 52.0625 -110.972656 52.371094 -98.703125 C 52.675781 -86.441406 54.289062 -74.105469 57.207031 -61.6875 C 60.078125 -49.460938 64.269531 -38.089844 69.777344 -27.570312 C 75.027344 -17.550781 81.695312 -9.113281 89.78125 -2.261719 C 97.40625 4.199219 106.507812 8.378906 117.085938 10.277344 C 128.03125 12.242188 137.996094 11.476562 146.976562 7.980469 C 156.539062 4.257812 165.160156 -1.390625 172.839844 -8.964844 C 180.785156 -16.800781 187.277344 -25.65625 192.316406 -35.527344 C 197.40625 -45.5 200.839844 -55.441406 202.617188 -65.34375 C 205.59375 -81.902344 206.660156 -98.449219 205.820312 -114.980469 C 204.996094 -131.230469 202.105469 -146.210938 197.144531 -159.925781 C 192.398438 -173.046875 185.5625 -184.019531 176.632812 -192.84375 C 168.199219 -201.179688 157.324219 -206.542969 144.011719 -208.933594 C 126.824219 -212.019531 112.359375 -210.675781 100.609375 -204.902344 C 88.578125 -198.992188 78.785156 -189.859375 71.230469 -177.507812 C 63.230469 -164.433594 57.714844 -149.441406 54.675781 -132.53125 Z M 124.253906 -41.863281 C 128.792969 -41.046875 132.746094 -41.636719 136.109375 -43.628906 C 140.269531 -46.089844 143.835938 -49.875 146.8125 -54.980469 C 150.132812 -60.675781 152.40625 -66.941406 153.632812 -73.773438 C 154.550781 -78.894531 155.167969 -85.171875 155.484375 -92.601562 C 155.792969 -100.003906 155.542969 -107.757812 154.722656 -115.867188 C 153.925781 -123.742188 152.457031 -131.164062 150.308594 -138.125 C 148.40625 -144.296875 145.773438 -149.402344 142.414062 -153.4375 C 139.925781 -156.429688 136.851562 -158.253906 133.199219 -158.914062 C 129.238281 -159.625 125.835938 -159.507812 122.996094 -158.566406 C 120.363281 -157.691406 117.976562 -155.996094 115.839844 -153.476562 C 110.003906 -146.59375 106.09375 -137.628906 104.109375 -126.582031 C 103.496094 -123.160156 103.082031 -118.050781 102.867188 -111.257812 C 102.652344 -104.320312 102.882812 -96.625 103.566406 -88.171875 C 104.222656 -79.980469 105.546875 -72.074219 107.53125 -64.453125 C 109.285156 -57.707031 111.84375 -52.09375 115.199219 -47.613281 C 117.578125 -44.4375 120.597656 -42.519531 124.253906 -41.863281 Z M 119.875 -17.488281 C 109.824219 -19.296875 101.660156 -24.386719 95.382812 -32.765625 C 90.078125 -39.84375 86.140625 -48.328125 83.566406 -58.214844 C 81.21875 -67.230469 79.65625 -76.554688 78.882812 -86.183594 C 78.128906 -95.554688 77.871094 -104.171875 78.117188 -112.03125 C 78.367188 -120.035156 78.90625 -126.34375 79.734375 -130.957031 C 82.503906 -146.378906 88.246094 -159.226562 96.953125 -169.492188 C 102.089844 -175.546875 108.171875 -179.738281 115.203125 -182.070312 C 122.023438 -184.332031 129.484375 -184.738281 137.574219 -183.285156 C 147.152344 -181.566406 155.113281 -176.894531 161.453125 -169.277344 C 166.921875 -162.699219 171.09375 -154.75 173.972656 -145.425781 C 176.605469 -136.890625 178.398438 -127.867188 179.359375 -118.351562 C 180.296875 -109.070312 180.585938 -100.136719 180.222656 -91.558594 C 179.863281 -83.007812 179.125 -75.621094 178.007812 -69.398438 C 176.261719 -59.6875 172.996094 -50.726562 168.207031 -42.507812 C 163.070312 -33.699219 156.578125 -26.96875 148.726562 -22.320312 C 140.078125 -17.199219 130.460938 -15.589844 119.875 -17.488281 Z M 119.875 -17.488281 "/></g></g></g></g></g></svg>