<svg xmlns="http://www.w3.org/2000/svg" xmlns:xlink="http://www.w3.org/1999/xlink" width="500" zoomAndPan="magnify" viewBox="0 0 375 374.999991" height="500" preserveAspectRatio="xMidYMid meet" version="1.0"><defs><g/><clipPath id="9725caece0"><path d="M 74 55 L 326 55 L 326 351 L 74 351 Z M 74 55 " clip-rule="nonzero"/></clipPath><clipPath id="dae4a74d57"><path d="M 71 47 L 326 47 L 326 344 L 71 344 Z M 71 47 " clip-rule="nonzero"/></clipPath><clipPath id="7088971176"><rect x="0" width="326" y="0" height="375"/></clipPath></defs><g transform="matrix(1, 0, 0, 1, 49, 0)"><g clip-path="url(#7088971176)"><g clip-path="url(#9725caece0)"><g fill="#691112" fill-opacity="1"><g transform="translate(58.334584, 274.343868)"><g><path d="M 69.125 -123.203125 C 76.132812 -140.566406 85.414062 -155.394531 96.96875 -167.6875 C 108.53125 -179.976562 121.960938 -188.082031 137.265625 -192 C 152.578125 -195.925781 169.585938 -194.113281 188.296875 -186.5625 C 203.210938 -180.550781 214.65625 -171.535156 222.625 -159.515625 C 230.59375 -147.503906 235.6875 -133.664062 237.90625 -118 C 240.132812 -102.34375 239.894531 -85.867188 237.1875 -68.578125 C 234.488281 -51.296875 229.816406 -34.410156 223.171875 -17.921875 C 218.941406 -7.460938 212.9375 2.601562 205.15625 12.28125 C 197.375 21.957031 188.234375 30.179688 177.734375 36.953125 C 167.234375 43.722656 156.082031 48.09375 144.28125 50.0625 C 132.476562 52.03125 120.347656 50.5 107.890625 45.46875 C 95.859375 40.613281 86.085938 33.367188 78.578125 23.734375 C 71.078125 14.109375 65.5625 3.082031 62.03125 -9.34375 C 58.5 -21.78125 56.5625 -34.796875 56.21875 -48.390625 C 55.882812 -61.984375 56.894531 -75.226562 59.25 -88.125 C 61.601562 -101.03125 64.894531 -112.722656 69.125 -123.203125 Z M 125.546875 -4.109375 C 132.671875 -1.234375 139.535156 -0.921875 146.140625 -3.171875 C 152.753906 -5.421875 158.753906 -9.535156 164.140625 -15.515625 C 169.523438 -21.503906 173.789062 -28.394531 176.9375 -36.1875 C 179.09375 -41.53125 181.148438 -48.078125 183.109375 -55.828125 C 185.078125 -63.585938 186.519531 -71.8125 187.4375 -80.5 C 188.363281 -89.1875 188.445312 -97.566406 187.6875 -105.640625 C 186.925781 -113.722656 184.925781 -120.8125 181.6875 -126.90625 C 178.445312 -133 173.710938 -137.300781 167.484375 -139.8125 C 156.117188 -144.394531 146.003906 -143.226562 137.140625 -136.3125 C 128.273438 -129.40625 121.328125 -119.71875 116.296875 -107.25 C 114.765625 -103.46875 113.128906 -97.976562 111.390625 -90.78125 C 109.648438 -83.59375 108.21875 -75.5625 107.09375 -66.6875 C 105.976562 -57.820312 105.632812 -49.09375 106.0625 -40.5 C 106.488281 -31.914062 108.226562 -24.351562 111.28125 -17.8125 C 114.332031 -11.28125 119.085938 -6.710938 125.546875 -4.109375 Z M 125.546875 -4.109375 "/></g></g></g></g><g clip-path="url(#dae4a74d57)"><g fill="#dd2427" fill-opacity="1"><g transform="translate(55.426576, 266.779318)"><g><path d="M 69.125 -123.203125 C 76.132812 -140.566406 85.414062 -155.394531 96.96875 -167.6875 C 108.53125 -179.976562 121.960938 -188.082031 137.265625 -192 C 152.578125 -195.925781 169.585938 -194.113281 188.296875 -186.5625 C 203.210938 -180.550781 214.65625 -171.535156 222.625 -159.515625 C 230.59375 -147.503906 235.6875 -133.664062 237.90625 -118 C 240.132812 -102.34375 239.894531 -85.867188 237.1875 -68.578125 C 234.488281 -51.296875 229.816406 -34.410156 223.171875 -17.921875 C 218.941406 -7.460938 212.9375 2.601562 205.15625 12.28125 C 197.375 21.957031 188.234375 30.179688 177.734375 36.953125 C 167.234375 43.722656 156.082031 48.09375 144.28125 50.0625 C 132.476562 52.03125 120.347656 50.5 107.890625 45.46875 C 95.859375 40.613281 86.085938 33.367188 78.578125 23.734375 C 71.078125 14.109375 65.5625 3.082031 62.03125 -9.34375 C 58.5 -21.78125 56.5625 -34.796875 56.21875 -48.390625 C 55.882812 -61.984375 56.894531 -75.226562 59.25 -88.125 C 61.601562 -101.03125 64.894531 -112.722656 69.125 -123.203125 Z M 125.546875 -4.109375 C 132.671875 -1.234375 139.535156 -0.921875 146.140625 -3.171875 C 152.753906 -5.421875 158.753906 -9.535156 164.140625 -15.515625 C 169.523438 -21.503906 173.789062 -28.394531 176.9375 -36.1875 C 179.09375 -41.53125 181.148438 -48.078125 183.109375 -55.828125 C 185.078125 -63.585938 186.519531 -71.8125 187.4375 -80.5 C 188.363281 -89.1875 188.445312 -97.566406 187.6875 -105.640625 C 186.925781 -113.722656 184.925781 -120.8125 181.6875 -126.90625 C 178.445312 -133 173.710938 -137.300781 167.484375 -139.8125 C 156.117188 -144.394531 146.003906 -143.226562 137.140625 -136.3125 C 128.273438 -129.40625 121.328125 -119.71875 116.296875 -107.25 C 114.765625 -103.46875 113.128906 -97.976562 111.390625 -90.78125 C 109.648438 -83.59375 108.21875 -75.5625 107.09375 -66.6875 C 105.976562 -57.820312 105.632812 -49.09375 106.0625 -40.5 C 106.488281 -31.914062 108.226562 -24.351562 111.28125 -17.8125 C 114.332031 -11.28125 119.085938 -6.710938 125.546875 -4.109375 Z M 125.546875 -4.109375 "/></g></g></g></g></g></g><g fill="#1e4482" fill-opacity="1"><g transform="translate(28.686021, 329.609553)"><g><path d="M 123.421875 -223.078125 C 126.304688 -228.859375 129.726562 -233.238281 133.6875 -236.21875 C 137.65625 -239.207031 141.796875 -240.890625 146.109375 -241.265625 C 152.796875 -241.828125 158.640625 -239.613281 163.640625 -234.625 C 168.648438 -229.632812 171.5625 -222.347656 172.375 -212.765625 C 169.21875 -199.003906 163.960938 -185.0625 156.609375 -170.9375 C 149.253906 -156.820312 140.867188 -142.738281 131.453125 -128.6875 C 142.335938 -117.070312 151.972656 -105.894531 160.359375 -95.15625 C 168.742188 -84.425781 178.066406 -73.957031 188.328125 -63.75 L 187.96875 -63.71875 C 194.132812 -59.1875 197.523438 -53.328125 198.140625 -46.140625 C 198.640625 -40.160156 196.773438 -34.460938 192.546875 -29.046875 C 188.316406 -23.628906 181.894531 -20.554688 173.28125 -19.828125 C 168.25 -19.390625 163.109375 -20.992188 157.859375 -24.640625 C 152.609375 -28.285156 147.570312 -32.914062 142.75 -38.53125 C 137.9375 -44.15625 133.484375 -49.742188 129.390625 -55.296875 C 125.304688 -60.859375 121.804688 -65.203125 118.890625 -68.328125 L 102.125 -87.140625 C 93.863281 -76.546875 85.953125 -66.109375 78.390625 -55.828125 C 70.828125 -45.546875 63.828125 -35.796875 57.390625 -26.578125 C 54.378906 -22.210938 50.921875 -18.898438 47.015625 -16.640625 C 43.109375 -14.390625 39.359375 -13.109375 35.765625 -12.796875 C 29.554688 -12.273438 23.925781 -14.085938 18.875 -18.234375 C 13.820312 -22.378906 11.007812 -27.800781 10.4375 -34.5 C 9.945312 -40.238281 11.132812 -46.125 14 -52.15625 C 22.5625 -64.695312 31.320312 -77.070312 40.28125 -89.28125 C 49.25 -101.488281 58.039062 -113.625 66.65625 -125.6875 C 54.425781 -139.101562 42.429688 -152.597656 30.671875 -166.171875 C 18.910156 -179.753906 7.609375 -193.675781 -3.234375 -207.9375 C -6.066406 -212.757812 -7.707031 -217.800781 -8.15625 -223.0625 C -8.757812 -230.25 -6.914062 -236.253906 -2.625 -241.078125 C 1.65625 -245.898438 6.785156 -248.566406 12.765625 -249.078125 C 16.597656 -249.398438 20.828125 -248.613281 25.453125 -246.71875 C 30.078125 -244.820312 34.144531 -241.613281 37.65625 -237.09375 C 47.082031 -225.351562 56.6875 -213.695312 66.46875 -202.125 C 76.257812 -190.550781 86.21875 -179.046875 96.34375 -167.609375 C 102.101562 -176.296875 107.488281 -185.1875 112.5 -194.28125 C 117.507812 -203.382812 121.148438 -212.984375 123.421875 -223.078125 Z M 123.421875 -223.078125 "/></g></g></g><g fill="#249ebf" fill-opacity="1"><g transform="translate(22.675944, 324.172843)"><g><path d="M 123.421875 -223.078125 C 126.304688 -228.859375 129.726562 -233.238281 133.6875 -236.21875 C 137.65625 -239.207031 141.796875 -240.890625 146.109375 -241.265625 C 152.796875 -241.828125 158.640625 -239.613281 163.640625 -234.625 C 168.648438 -229.632812 171.5625 -222.347656 172.375 -212.765625 C 169.21875 -199.003906 163.960938 -185.0625 156.609375 -170.9375 C 149.253906 -156.820312 140.867188 -142.738281 131.453125 -128.6875 C 142.335938 -117.070312 151.972656 -105.894531 160.359375 -95.15625 C 168.742188 -84.425781 178.066406 -73.957031 188.328125 -63.75 L 187.96875 -63.71875 C 194.132812 -59.1875 197.523438 -53.328125 198.140625 -46.140625 C 198.640625 -40.160156 196.773438 -34.460938 192.546875 -29.046875 C 188.316406 -23.628906 181.894531 -20.554688 173.28125 -19.828125 C 168.25 -19.390625 163.109375 -20.992188 157.859375 -24.640625 C 152.609375 -28.285156 147.570312 -32.914062 142.75 -38.53125 C 137.9375 -44.15625 133.484375 -49.742188 129.390625 -55.296875 C 125.304688 -60.859375 121.804688 -65.203125 118.890625 -68.328125 L 102.125 -87.140625 C 93.863281 -76.546875 85.953125 -66.109375 78.390625 -55.828125 C 70.828125 -45.546875 63.828125 -35.796875 57.390625 -26.578125 C 54.378906 -22.210938 50.921875 -18.898438 47.015625 -16.640625 C 43.109375 -14.390625 39.359375 -13.109375 35.765625 -12.796875 C 29.554688 -12.273438 23.925781 -14.085938 18.875 -18.234375 C 13.820312 -22.378906 11.007812 -27.800781 10.4375 -34.5 C 9.945312 -40.238281 11.132812 -46.125 14 -52.15625 C 22.5625 -64.695312 31.320312 -77.070312 40.28125 -89.28125 C 49.25 -101.488281 58.039062 -113.625 66.65625 -125.6875 C 54.425781 -139.101562 42.429688 -152.597656 30.671875 -166.171875 C 18.910156 -179.753906 7.609375 -193.675781 -3.234375 -207.9375 C -6.066406 -212.757812 -7.707031 -217.800781 -8.15625 -223.0625 C -8.757812 -230.25 -6.914062 -236.253906 -2.625 -241.078125 C 1.65625 -245.898438 6.785156 -248.566406 12.765625 -249.078125 C 16.597656 -249.398438 20.828125 -248.613281 25.453125 -246.71875 C 30.078125 -244.820312 34.144531 -241.613281 37.65625 -237.09375 C 47.082031 -225.351562 56.6875 -213.695312 66.46875 -202.125 C 76.257812 -190.550781 86.21875 -179.046875 96.34375 -167.609375 C 102.101562 -176.296875 107.488281 -185.1875 112.5 -194.28125 C 117.507812 -203.382812 121.148438 -212.984375 123.421875 -223.078125 Z M 123.421875 -223.078125 "/></g></g></g></svg>